<?xml version="1.0" standalone="no"?>
<!DOCTYPE svg PUBLIC "-//W3C//DTD SVG 20010904//EN"
 "http://www.w3.org/TR/2001/REC-SVG-20010904/DTD/svg10.dtd">
<svg version="1.0" xmlns="http://www.w3.org/2000/svg"
 width="763.000000pt" height="763.000000pt" viewBox="0 0 763.000000 763.000000"
 preserveAspectRatio="xMidYMid meet">
<metadata>
Created by potrace 1.11, written by Peter Selinger 2001-2013
</metadata>
<g transform="translate(0.000000,763.000000) scale(0.100000,-0.100000)"
fill="#000000" stroke="none">
<path d="M3730 7627 c-3 -3 -60 -8 -127 -12 -67 -3 -133 -8 -145 -10 -13 -2
-50 -6 -83 -10 -58 -6 -280 -40 -320 -49 -11 -3 -51 -12 -90 -21 -186 -41
-395 -107 -590 -185 -170 -68 -493 -239 -617 -327 -26 -18 -50 -33 -53 -33 -7
0 -183 -130 -295 -219 -144 -113 -438 -411 -549 -556 -17 -22 -36 -47 -43 -55
-40 -46 -258 -363 -258 -374 0 -2 -24 -46 -54 -99 -76 -133 -166 -322 -219
-457 -83 -211 -170 -513 -192 -666 -4 -22 -8 -47 -11 -56 -9 -32 -19 -95 -39
-259 -11 -96 -19 -281 -19 -439 1 -213 9 -323 40 -555 9 -63 53 -279 75 -363
11 -42 22 -84 24 -92 56 -226 213 -598 370 -875 30 -53 194 -307 204 -315 3
-3 35 -43 71 -90 112 -147 151 -193 265 -310 139 -144 330 -320 373 -344 10
-5 22 -14 28 -20 14 -15 57 -48 124 -96 30 -22 60 -43 65 -48 48 -39 294 -183
441 -258 354 -179 669 -283 1089 -359 291 -53 723 -65 1035 -29 65 8 302 44
320 49 8 2 29 7 47 10 17 3 59 12 92 21 34 8 69 17 78 19 10 1 38 9 63 16 56
16 58 16 70 18 9 1 16 1241 6 1241 -4 0 -73 -27 -101 -40 -29 -13 -157 -61
-175 -65 -8 -2 -36 -10 -61 -19 -72 -25 -288 -74 -354 -81 -33 -4 -63 -8 -66
-11 -29 -17 -430 -25 -584 -11 -300 28 -619 117 -890 248 -66 32 -125 63 -132
69 -7 5 -16 10 -22 10 -12 0 -297 191 -338 227 -17 15 -46 39 -64 53 -83 63
-309 299 -386 403 -15 21 -44 59 -64 85 -73 96 -186 295 -254 447 -15 33 -31
69 -36 80 -11 26 -57 148 -74 200 -34 101 -80 301 -91 390 -3 22 -7 46 -9 53
-26 78 -27 592 -1 717 2 11 7 45 11 75 9 66 8 62 35 175 11 50 33 128 47 175
15 47 27 87 28 90 4 11 17 46 26 65 4 11 18 45 29 75 30 77 112 243 159 320
22 36 48 78 57 94 16 28 113 166 124 176 3 3 18 23 35 45 84 113 287 316 415
415 25 19 48 39 51 44 4 5 25 20 47 35 22 14 71 47 108 72 38 25 85 54 104 65
19 10 37 22 40 25 9 10 272 135 340 162 138 54 383 123 505 142 407 62 733 49
1100 -46 85 -22 247 -73 280 -89 11 -5 53 -23 93 -39 l72 -30 -2 621 -3 622
-90 23 c-49 13 -97 26 -105 28 -8 2 -72 15 -142 29 -245 49 -415 69 -698 82
-74 4 -137 4 -140 1z"/>
<path d="M3757 5434 c-1 -1 -27 -4 -57 -5 -70 -2 -254 -34 -308 -53 -23 -9
-43 -15 -45 -14 -19 9 -282 -109 -373 -167 -313 -199 -543 -483 -665 -820 -35
-95 -65 -211 -75 -280 -3 -27 -10 -72 -14 -100 -8 -52 -6 -342 4 -385 2 -14 7
-43 11 -64 24 -161 104 -380 198 -541 97 -167 271 -361 422 -472 145 -106 297
-187 445 -237 179 -60 348 -85 555 -81 238 5 417 47 643 151 40 19 75 34 77
34 17 0 256 171 306 220 9 8 31 29 50 46 176 160 370 485 424 710 3 10 13 53
24 94 10 41 22 100 26 130 11 80 14 350 4 412 -5 29 -11 71 -14 93 -8 51 -48
202 -75 279 -24 68 -101 226 -130 266 -11 16 -20 32 -20 37 0 5 -8 18 -18 29
-9 10 -35 46 -57 78 -47 70 -263 291 -294 301 -11 3 -21 9 -21 13 0 4 -18 18
-40 32 -22 14 -40 28 -40 32 0 5 -4 8 -9 8 -5 0 -39 18 -77 40 -128 74 -374
168 -494 186 -14 2 -38 6 -55 9 -85 13 -300 27 -308 19z"/>
<path d="M5913 5418 c120 -166 174 -253 253 -405 82 -160 178 -417 209 -563 2
-8 11 -49 20 -90 9 -41 18 -91 20 -110 3 -19 7 -46 10 -60 29 -147 26 -596 -5
-765 -5 -27 -11 -66 -14 -85 -7 -49 -32 -152 -56 -235 -12 -38 -23 -77 -25
-85 -25 -104 -186 -461 -249 -553 -14 -21 -26 -40 -26 -42 0 -3 -34 -52 -75
-110 l-75 -105 675 0 675 0 21 47 c12 27 30 66 40 88 27 61 141 382 153 435 2
8 18 71 35 140 16 69 33 145 36 170 4 24 8 47 11 51 2 3 6 26 9 50 3 24 7 51
9 59 3 8 7 42 11 75 3 33 8 74 11 90 11 76 16 187 17 400 0 234 -9 396 -28
505 -2 14 -7 43 -10 65 -3 22 -12 78 -21 125 -9 47 -18 96 -21 110 -13 75 -70
280 -108 394 -66 199 -139 381 -162 406 -12 13 -102 15 -683 15 -624 0 -668
-1 -657 -17z"/>
</g>
</svg>
